<svg width="1232" height="330" viewBox="0 0 1232 330" fill="none" xmlns="http://www.w3.org/2000/svg">
<path d="M175.929 238.858L184.425 144.434L101.959 177.731L175.929 238.858Z" fill="#AED3E5"/>
<path d="M1 33.1127L60 1.80361H31.5H17H11C6.32578 1.80361 2.27877 5.05024 1.26511 9.61323L1.23797 9.73539C1.0798 10.4474 1 11.1746 1 11.904V18.3066V33.1127Z" fill="#217CA3"/>
<path d="M36.9854 81.8157L60 1.80361L1 33.1127L36.9854 81.8157Z" fill="#CEDAE6"/>
<path d="M184.425 144.434L121.451 56.4703L36.9854 81.8157L184.425 144.434Z" fill="#217CA3"/>
<path d="M240.902 144.434L225.909 1.80361H151.5L240.902 144.434Z" fill="#CEDAE6"/>
<path d="M175.929 238.858L240.902 144.434H184.425L175.929 238.858Z" fill="#217CA3"/>
<path d="M175.929 238.858L101.959 177.731L1 254.761L44.4823 251.779L90.9634 248.301L175.929 238.858Z" fill="#217CA3"/>
<path d="M101.959 177.731L42.4831 130.205L1 213.513L101.959 177.731Z" fill="#CEDAE6"/>
<path d="M184.925 329.307L90.9634 248.301L93.9622 329.307H184.925Z" fill="#CEDAE6"/>
<path d="M355.356 329.307L338.363 226.434H254.397L355.356 329.307Z" fill="#CEDAE6"/>
<path d="M291.382 81.8157L254.397 226.434H338.363L291.382 81.8157Z" fill="#CEDAE6"/>
<path d="M356.356 56.4703L225.909 1.80361L291.382 81.8157L356.356 56.4703Z" fill="#CEDAE6"/>
<path d="M361.853 173.755L356.356 56.4703L291.382 81.8157L361.853 173.755Z" fill="#217CA3"/>
<path d="M331.366 1.80361L356.356 56.4703L422.329 1.80361H331.366Z" fill="#AED3E5"/>
<path d="M422.329 1.80361V63.4279H509.293L422.329 1.80361Z" fill="#217CA3"/>
<path d="M396.339 126.046L361.853 173.755L462.812 152.882L429.576 139.464L396.339 126.046Z" fill="#AED3E5"/>
<path d="M361.853 173.755L355.356 329.307L428.826 264.204L361.853 173.755Z" fill="#217CA3"/>
<path d="M462.812 152.882L428.826 264.204L529.285 190.652L462.812 152.882Z" fill="#AED3E5"/>
<path d="M552.776 63.4279L462.812 152.882L577.266 183.695L552.776 63.4279Z" fill="#CEDAE6"/>
<path d="M577.266 183.695L529.285 190.652L540.781 274.64L577.266 183.695Z" fill="#217CA3"/>
<path d="M577.266 183.695L540.781 274.64L626.246 210.034L577.266 183.695Z" fill="#AED3E5"/>
<path d="M428.826 264.204L413.832 329.307H529.285L428.826 264.204Z" fill="#217CA3"/>
<path d="M898.635 329.307L881.142 264.204L760.441 296.755L639.74 329.307H898.635Z" fill="#CEDAE6"/>
<path d="M768.688 173.755L639.74 329.307L760.441 296.755L768.688 173.755Z" fill="#217CA3"/>
<path d="M626.246 210.034L639.74 298.495L768.688 173.755L626.246 210.034Z" fill="#CEDAE6"/>
<path d="M552.776 63.4279L768.688 173.755L697.217 1.80361L552.776 63.4279Z" fill="#217CA3"/>
<path d="M810.171 73.8642L768.688 173.755H881.142L810.171 73.8642Z" fill="#CEDAE6"/>
<path d="M810.171 1.80361L908.381 74.1127L1000.59 1.80361H810.171Z" fill="#CEDAE6"/>
<path d="M847.656 73.8642L881.142 173.755L1006.59 144.434L847.656 73.8642Z" fill="#217CA3"/>
<path d="M1000.59 1.80361L1006.59 144.434L1043.58 105.67L1000.59 1.80361Z" fill="#217CA3"/>
<path d="M1058.57 1.30664L1043.58 105.67L1130.04 61.44L1177.52 33.1127L1058.57 1.30664Z" fill="#CEDAE6"/>
<path d="M1158.03 105.67L1070.07 236.87L1145.78 217.488L1158.03 105.67Z" fill="#217CA3"/>
<path d="M1070.07 236.87L1133.54 329.307L1145.78 217.488L1070.07 236.87Z" fill="#AED3E5"/>
<path d="M1006.59 144.434L1012.09 288.058L1133.54 329.307L1070.07 236.87L1006.59 144.434Z" fill="#CEDAE6"/>
<path d="M881.142 173.755V264.204L1012.09 288.058L881.142 173.755Z" fill="#217CA3"/>
<path d="M1012.09 288.058L898.635 329.307H1026.58L1012.09 288.058Z" fill="#217CA3"/>
<path d="M1184.32 270.705L1222 329.307C1226.97 329.307 1231 325.277 1231 320.307V318.56V307.813V286.319V243.331L1184.32 270.705Z" fill="#217CA3"/>
<path d="M1231 100.701L1206.76 184.44L1231 243.331V100.701Z" fill="#AED3E5"/>
<path d="M1231 100.701L1145.78 217.488L1182.52 268.179L1206.76 184.44L1231 100.701Z" fill="#CEDAE6"/>
<path d="M1182.52 268.179L1133.54 329.307H1185.52L1182.69 271.658L1182.52 268.179Z" fill="#217CA3"/>
<path d="M1177.52 33.1127L1158.03 105.67L1231 100.701L1177.52 33.1127Z" fill="#217CA3"/>
<path d="M1159 1.30664L1177.52 33.1127L1220.5 1.80664L1195 1.30664H1159Z" fill="#CEDAE6"/>
<path d="M422.329 63.4279L396.339 126.046L429.576 139.464L462.812 152.882L422.329 63.4279Z" fill="#AED3E5"/>
<path d="M356.356 56.4703L396.339 126.046L422.329 63.4279L356.356 56.4703Z" fill="#AED3E5"/>
<path d="M422.329 63.4279L462.812 152.882L509.293 63.4279H422.329Z" fill="#CEDAE6"/>
<path d="M254.397 226.434L184.925 329.307H274.389L254.397 226.434Z" fill="#217CA3"/>
<path d="M101.959 177.731L184.425 144.434L42.4831 130.205L101.959 177.731Z" fill="#AED3E5"/>
<path d="M529.285 329.307L639.74 298.495L626.246 210.034L577.766 269.67L529.285 329.307Z" fill="#CEDAE6"/>
<path d="M552.776 63.4279L577.266 183.695L626.246 210.034L552.776 63.4279Z" fill="#217CA3"/>
<path d="M810.171 1.80361V73.8642H847.656L810.171 1.80361Z" fill="#CEDAE6"/>
<path d="M697.217 1.80361L810.171 73.8642V1.80361H697.217Z" fill="#217CA3"/>
<path d="M356.356 56.4703L361.853 173.755L396.339 126.046L356.356 56.4703Z" fill="#217CA3"/>
<path d="M462.812 152.882L361.853 173.755L428.826 264.204L462.812 152.882Z" fill="#CEDAE6"/>
<path fill-rule="evenodd" clip-rule="evenodd" d="M240.902 144.434L225.909 1.80361L291.382 81.8157L254.397 226.434L184.925 329.307L90.9634 248.301L175.929 238.858L240.902 144.434ZM184.425 144.434L121.451 56.4703L36.9854 81.8157L60 1.80361H151.5L240.902 144.434H184.425ZM1 213.513L42.4831 130.205L184.425 144.434L36.9854 81.8157L1 33.1127V126.046V213.513ZM1 254.761L44.4823 251.779L90.9634 248.301L93.9622 329.307H47H23H12.4294C11.8111 329.307 11.1942 329.249 10.5865 329.135L9.57449 328.946C5.85164 328.248 2.8427 325.506 1.80213 321.864L1.5 320.807L1 254.761ZM1 254.761L101.959 177.731L1 213.513V254.761ZM355.356 329.307L254.397 226.434L274.389 329.307H355.356ZM428.826 264.204L355.356 329.307L361.853 173.755L291.382 81.8157L338.363 226.434L355.356 329.307H413.832L428.826 264.204ZM529.285 190.652L428.826 264.204L529.285 329.307H639.74L768.688 173.755L760.441 296.755L881.142 264.204L898.635 329.307L1012.09 288.058L1026.58 329.307H1133.54L1182.52 268.179L1182.69 271.658L1185.52 329.307H1222L1184.32 270.705L1231 243.331L1206.76 184.44L1182.52 268.179L1145.78 217.488L1231 100.701V51.3066V26.3066V11.8984C1231 10.5188 1230.71 9.15416 1230.16 7.89024L1230.11 7.76166C1228.52 4.14414 1224.95 1.80664 1221 1.80664H1220.5L1177.52 33.1127L1159 1.30664H1058.57L1000.59 1.80361L908.381 74.1127L810.171 1.80361L847.656 73.8642H810.171L697.217 1.80361H513.292H422.329L356.356 56.4703L422.329 63.4279V1.80361L509.293 63.4279L462.812 152.882L529.285 190.652ZM626.246 210.034L577.766 269.67L529.285 329.307L639.74 298.495L768.688 173.755H881.142V264.204L1012.09 288.058L1133.54 329.307L1145.78 217.488L1158.03 105.67L1231 100.701L1177.52 33.1127L1058.57 1.30664L1043.58 105.67L1000.59 1.80361L1006.59 144.434L847.656 73.8642L881.142 173.755L810.171 73.8642L768.688 173.755L697.217 1.80361L552.776 63.4279L462.812 152.882L577.266 183.695L529.285 190.652L540.781 274.64L626.246 210.034ZM626.246 210.034L768.688 173.755L552.776 63.4279L626.246 210.034ZM1006.59 144.434L1070.07 236.87L1158.03 105.67L1177.52 33.1127L1130.04 61.44L1043.58 105.67L1006.59 144.434ZM1006.59 144.434L1012.09 288.058L881.142 173.755L1006.59 144.434Z" fill="#AED3E5"/>
<path d="M225.909 1.80361L356.356 56.4703L331.366 1.80361H225.909Z" fill="#217CA3"/>
<path d="M240.902 144.434L225.909 1.80361M240.902 144.434L291.382 81.8157M240.902 144.434L254.397 226.434M240.902 144.434L151.5 1.80361M240.902 144.434L121.451 56.4703M240.902 144.434L175.929 238.858M240.902 144.434H184.425M225.909 1.80361L356.356 56.4703M225.909 1.80361L291.382 81.8157M225.909 1.80361H151.5M225.909 1.80361H331.366M356.356 56.4703L331.366 1.80361M356.356 56.4703L422.329 1.80361M356.356 56.4703L361.853 173.755M356.356 56.4703L291.382 81.8157M356.356 56.4703L396.339 126.046M356.356 56.4703L422.329 63.4279M331.366 1.80361H422.329M422.329 1.80361V63.4279M422.329 1.80361L509.293 63.4279M422.329 1.80361H513.292M361.853 173.755L291.382 81.8157M361.853 173.755L355.356 329.307M361.853 173.755L396.339 126.046M361.853 173.755L462.812 152.882M361.853 173.755L428.826 264.204M291.382 81.8157L254.397 226.434M291.382 81.8157L338.363 226.434M254.397 226.434L355.356 329.307M254.397 226.434L184.925 329.307M254.397 226.434L274.389 329.307M254.397 226.434L175.929 238.858M254.397 226.434H338.363M355.356 329.307L338.363 226.434M355.356 329.307H274.389M355.356 329.307L428.826 264.204M355.356 329.307H413.832M184.925 329.307H274.389M184.925 329.307L90.9634 248.301M184.925 329.307H93.9622M151.5 1.80361L121.451 56.4703M151.5 1.80361H60M121.451 56.4703L184.425 144.434M121.451 56.4703L60 1.80361M121.451 56.4703L36.9854 81.8157M175.929 238.858L184.425 144.434M175.929 238.858L101.959 177.731M175.929 238.858L90.9634 248.301M184.425 144.434L36.9854 81.8157M184.425 144.434L101.959 177.731M184.425 144.434L42.4831 130.205M60 1.80361L36.9854 81.8157M60 1.80361L1 33.1127M60 1.80361H31.5H17H11V1.80361C6.32578 1.80361 2.27877 5.05024 1.26511 9.61323L1.23797 9.73539C1.0798 10.4474 1 11.1746 1 11.904V18.3066V33.1127M36.9854 81.8157L1 126.046M36.9854 81.8157L1 33.1127M1 126.046V33.1127M1 126.046L42.4831 130.205M1 126.046V213.513M101.959 177.731L42.4831 130.205M101.959 177.731L1 213.513M101.959 177.731L1 254.761M42.4831 130.205L1 213.513M1 213.513V254.761M1 254.761L44.4823 251.779M1 254.761L1.5 320.807M90.9634 248.301L44.4823 251.779M90.9634 248.301L93.9622 329.307M44.4823 251.779L1.5 320.807M44.4823 251.779L93.9622 329.307M1.5 320.807L1.80213 321.864C2.8427 325.506 5.85164 328.248 9.57449 328.946L10.5865 329.135C11.1942 329.249 11.8111 329.307 12.4294 329.307H23H47H93.9622M396.339 126.046L422.329 63.4279M396.339 126.046L429.576 139.464L462.812 152.882M462.812 152.882L428.826 264.204M462.812 152.882L422.329 63.4279M462.812 152.882L509.293 63.4279M462.812 152.882L529.285 190.652M462.812 152.882L552.776 63.4279M462.812 152.882L577.266 183.695M428.826 264.204L529.285 190.652M428.826 264.204L413.832 329.307M428.826 264.204L529.285 329.307M422.329 63.4279H509.293M509.293 63.4279L513.292 1.80361M509.293 63.4279H552.776M513.292 1.80361L552.776 63.4279M513.292 1.80361H697.217M552.776 63.4279L577.266 183.695M552.776 63.4279L626.246 210.034M552.776 63.4279L768.688 173.755M552.776 63.4279L697.217 1.80361M529.285 190.652L577.266 183.695M529.285 190.652L540.781 274.64M413.832 329.307H529.285M529.285 329.307L540.781 274.64M529.285 329.307L639.74 298.495M529.285 329.307H639.74M529.285 329.307L577.766 269.67L626.246 210.034M577.266 183.695L540.781 274.64M577.266 183.695L626.246 210.034M540.781 274.64L626.246 210.034M626.246 210.034L639.74 298.495M626.246 210.034L768.688 173.755M639.74 298.495V329.307M639.74 298.495L768.688 173.755M639.74 329.307L768.688 173.755M639.74 329.307H898.635M639.74 329.307L760.441 296.755M768.688 173.755L697.217 1.80361M768.688 173.755L810.171 73.8642M768.688 173.755L881.142 264.204M768.688 173.755L760.441 296.755M768.688 173.755H881.142M697.217 1.80361L810.171 73.8642M697.217 1.80361H810.171M810.171 73.8642V1.80361M810.171 73.8642L881.142 173.755M810.171 73.8642H847.656M810.171 1.80361L847.656 73.8642M810.171 1.80361L908.381 74.1127M810.171 1.80361H1000.59M881.142 173.755V264.204M881.142 173.755L847.656 73.8642M881.142 173.755L1006.59 144.434M881.142 173.755L1012.09 288.058M881.142 264.204L1012.09 288.058M881.142 264.204L898.635 329.307M881.142 264.204L760.441 296.755M847.656 73.8642L1006.59 144.434M1006.59 144.434L908.381 74.1127M1006.59 144.434L1012.09 288.058M1006.59 144.434L1000.59 1.80361M1006.59 144.434L1043.58 105.67M1006.59 144.434L1070.07 236.87M908.381 74.1127L1000.59 1.80361M1000.59 1.80361L1043.58 105.67M1000.59 1.80361L1058.57 1.30664M1012.09 288.058L898.635 329.307M1012.09 288.058L1026.58 329.307M1012.09 288.058L1133.54 329.307M898.635 329.307H1026.58M1026.58 329.307H1133.54M1133.54 329.307L1070.07 236.87M1133.54 329.307L1145.78 217.488M1133.54 329.307L1182.52 268.179M1133.54 329.307H1185.52M1043.58 105.67L1070.07 236.87M1043.58 105.67H1158.03M1043.58 105.67L1058.57 1.30664M1043.58 105.67L1130.04 61.44M1070.07 236.87L1158.03 105.67M1070.07 236.87L1145.78 217.488M1158.03 105.67L1145.78 217.488M1158.03 105.67L1130.04 61.44M1158.03 105.67L1177.52 33.1127M1158.03 105.67L1231 100.701M1058.57 1.30664L1177.52 33.1127M1058.57 1.30664H1159M1145.78 217.488L1231 100.701M1145.78 217.488L1182.52 268.179M1130.04 61.44L1177.52 33.1127M1177.52 33.1127L1159 1.30664M1177.52 33.1127L1231 100.701M1177.52 33.1127L1220.5 1.80664M1159 1.30664H1195L1220.5 1.80664M1231 100.701L1206.76 184.44M1231 100.701V243.331M1231 100.701V51.3066V26.3066V11.8984C1231 10.5188 1230.71 9.15416 1230.16 7.89024L1230.11 7.76166C1228.52 4.14414 1224.95 1.80664 1221 1.80664V1.80664H1220.5M1182.52 268.179L1184.32 270.705M1182.52 268.179L1206.76 184.44M1182.52 268.179L1182.69 271.658M1185.52 329.307L1182.69 271.658M1185.52 329.307H1222M1222 329.307L1184.32 270.705M1222 329.307V329.307C1226.97 329.307 1231 325.277 1231 320.307V318.56V307.813V286.319V243.331M1184.32 270.705L1182.69 271.658M1184.32 270.705L1231 243.331M1206.76 184.44L1231 243.331" stroke="black"/>
<rect x="1" y="1.30664" width="1230" height="328" rx="10" fill="#103C4E" fill-opacity="0.3"/>
</svg>
