<?xml version="1.0" encoding="utf-8"?>
<!-- Generator: Adobe Illustrator 24.2.1, SVG Export Plug-In . SVG Version: 6.00 Build 0)  -->
<svg version="1.1" id="Layer_1" xmlns="http://www.w3.org/2000/svg" xmlns:xlink="http://www.w3.org/1999/xlink" x="0px" y="0px"
	 viewBox="0 0 240 240" style="enable-background:new 0 0 240 240;" xml:space="preserve">
<style type="text/css">
	.st0{fill:url(#SVGID_1_);stroke:#FFFFFF;stroke-width:4;stroke-miterlimit:10;}
	.st1{fill:url(#SVGID_2_);stroke:#FFFFFF;stroke-width:4;stroke-miterlimit:10;}
	.st2{fill:url(#SVGID_3_);stroke:#FFFFFF;stroke-width:4;stroke-miterlimit:10;}
	.st3{fill:url(#SVGID_4_);stroke:#FFFFFF;stroke-width:4;stroke-miterlimit:10;}
	.st4{fill:url(#SVGID_5_);stroke:#FFFFFF;stroke-width:4;stroke-miterlimit:10;}
	.st5{fill:none;stroke:#FFFFFF;stroke-width:4;stroke-linecap:round;stroke-linejoin:round;stroke-miterlimit:10;}
	.st6{fill:#FFFFFF;}
	.st7{fill:url(#SVGID_6_);stroke:#FFFFFF;stroke-width:4;stroke-miterlimit:10;}
	.st8{fill:none;stroke:#FFFFFF;stroke-width:4;stroke-miterlimit:10;}
</style>
<g>
	<linearGradient id="SVGID_1_" gradientUnits="userSpaceOnUse" x1="178.0851" y1="44.3218" x2="232.6924" y2="44.3218">
		<stop  offset="0" style="stop-color:#77BEDF"/>
		<stop  offset="1" style="stop-color:#90E4EF"/>
	</linearGradient>
	<polyline class="st0" points="215.45,72.27 232.69,49.18 232.69,31.18 217.89,16.38 197.09,16.38 178.09,30.78 	"/>
	<linearGradient id="SVGID_2_" gradientUnits="userSpaceOnUse" x1="7.8929" y1="44.323" x2="62.5029" y2="44.323">
		<stop  offset="0" style="stop-color:#020F92"/>
		<stop  offset="1" style="stop-color:#2848AB"/>
	</linearGradient>
	<polyline class="st1" points="25.13,72.27 7.89,49.18 7.89,31.18 22.69,16.38 43.49,16.38 62.5,30.78 	"/>
	<g>
		<linearGradient id="SVGID_3_" gradientUnits="userSpaceOnUse" x1="13.8929" y1="120.4794" x2="226.6929" y2="120.4794">
			<stop  offset="0" style="stop-color:#020F92"/>
			<stop  offset="1" style="stop-color:#99F1F5"/>
		</linearGradient>
		<polygon class="st2" points="226.69,104.38 223.49,156.56 197.09,184.58 135.29,221.38 104.29,221.38 43.49,184.58 17.09,156.56 
			13.89,104.38 25.13,72.27 36.29,40.38 62.5,30.78 93.09,19.58 147.49,19.58 178.08,30.78 204.29,40.38 215.45,72.27 		"/>
		<linearGradient id="SVGID_4_" gradientUnits="userSpaceOnUse" x1="120.2874" y1="96.5094" x2="199.3374" y2="96.5094">
			<stop  offset="0" style="stop-color:#385FB5"/>
			<stop  offset="1" style="stop-color:#99F1F5"/>
		</linearGradient>
		<polyline class="st3" points="120.29,109.24 121.34,106.73 137.35,68.41 163.03,57.78 188.7,68.41 199.34,94.09 188.7,119.77 
			151.4,135.24 146.31,123.48 		"/>
		<linearGradient id="SVGID_5_" gradientUnits="userSpaceOnUse" x1="41.2474" y1="96.5094" x2="120.2874" y2="96.5094">
			<stop  offset="0" style="stop-color:#020F92"/>
			<stop  offset="1" style="stop-color:#3D67B8"/>
		</linearGradient>
		<polyline class="st4" points="120.29,109.24 119.24,106.73 103.24,68.41 77.56,57.78 51.88,68.41 41.25,94.09 51.88,119.77 
			89.4,135.24 94.27,123.49 		"/>
		<polyline class="st5" points="137.35,68.41 103.24,68.41 93.09,19.58 77.56,57.78 36.29,40.38 51.88,68.41 25.13,72.27 
			41.25,94.09 13.89,104.38 51.88,119.77 17.09,156.55 89.4,135.24 43.49,184.58 96.65,178.28 104.29,221.38 120.29,188.07 
			135.29,221.38 143.93,178.28 197.09,184.58 151.4,135.24 223.49,156.55 188.7,119.77 226.69,104.38 199.34,94.09 215.45,72.27 
			188.7,68.41 204.29,40.38 163.03,57.78 147.49,19.58 137.35,68.41 120.29,19.58 103.24,68.41 		"/>
		<polygon class="st6" points="148.18,95.68 154.1,88.43 161.51,85.96 171.4,88.43 171.4,92.14 167.69,99.55 157.81,100.79 		"/>
		<polygon class="st6" points="92.4,95.68 86.48,88.43 79.07,85.96 69.18,88.43 69.18,92.14 72.89,99.55 82.78,100.79 		"/>
	</g>
	<linearGradient id="SVGID_6_" gradientUnits="userSpaceOnUse" x1="86.8602" y1="146.6424" x2="153.7247" y2="146.6424">
		<stop  offset="0" style="stop-color:#2A4AAB"/>
		<stop  offset="0.5" style="stop-color:#3D67B9"/>
		<stop  offset="1" style="stop-color:#5B93CC"/>
	</linearGradient>
	<polygon class="st7" points="153.72,154.64 143.93,178.28 120.29,188.07 96.65,178.28 86.86,154.64 86.86,138.64 96.65,115 
		120.29,105.21 143.93,115 153.72,138.64 	"/>
	<polygon class="st6" points="134.15,151.67 130.09,161.46 120.29,165.52 110.5,161.46 106.44,151.67 120.29,146.12 	"/>
	<polyline class="st8" points="43.49,16.38 36.29,40.38 22.69,16.38 	"/>
	<polyline class="st8" points="7.89,49.18 36.29,40.38 7.89,31.18 	"/>
	<polyline class="st8" points="217.89,16.38 204.29,40.38 197.09,16.38 	"/>
	<polyline class="st8" points="232.69,49.18 204.29,40.38 232.69,31.18 	"/>
</g>
</svg>
