<svg width="240" height="240" viewBox="0 0 240 240" fill="none" xmlns="http://www.w3.org/2000/svg">
<path d="M214.82 69.85L232.06 46.76V28.76L217.26 13.96H196.46L177.45 28.37" fill="#AED3E5"/>
<path d="M214.82 69.85L232.06 46.76V28.76L217.26 13.96H196.46L177.45 28.37" stroke="#3B4F58" stroke-miterlimit="10"/>
<path d="M24.5 69.85L7.26001 46.76V28.76L22.06 13.96H42.86L61.87 28.36" fill="#AED3E5"/>
<path d="M24.5 69.85L7.26001 46.76V28.76L22.06 13.96H42.86L61.87 28.36" stroke="#3B4F58" stroke-miterlimit="10"/>
<path d="M226.06 101.96L222.86 154.14L196.46 182.16L134.66 218.96H103.66L42.86 182.16L16.46 154.14L13.26 101.96L24.5 69.8499L35.66 37.9599L61.87 28.3599L92.46 17.1599H146.86L177.45 28.3599L203.66 37.9599L214.82 69.8499L226.06 101.96Z" fill="#E0EAF6" stroke="#3B4F58" stroke-miterlimit="10" stroke-linejoin="round"/>
<path d="M136.71 65.9899H119.655H102.6L92.46 17.1599L76.92 55.3599L35.66 37.9599L51.24 65.9899L24.5 69.8499L40.61 91.6699L13.26 101.96L51.24 117.35L16.46 154.14L87 134L42.86 182.16L96.02 175.87L103.66 218.96L119.66 185.66L134.66 218.96L143.3 175.87L196.46 182.16L153 134L222.86 154.14L188.06 117.35L226.06 101.96L198.7 91.6699L214.82 69.8499L188.06 65.9899L203.66 37.9599L162.39 55.3599L146.86 17.1599L136.71 65.9899L119.66 17.1599L102.6 65.9899" fill="#CEDAE6"/>
<path d="M136.71 65.9899L146.86 17.1599L162.39 55.3599L203.66 37.9599L188.06 65.9899L214.82 69.8499L198.7 91.6699L226.06 101.96L188.06 117.35L222.86 154.14L153 134L196.46 182.16L143.3 175.87L134.66 218.96L119.66 185.66L103.66 218.96L96.02 175.87L42.86 182.16L87 134L16.46 154.14L51.24 117.35L13.26 101.96L40.61 91.6699L24.5 69.8499L51.24 65.9899L35.66 37.9599L76.92 55.3599L92.46 17.1599L102.6 65.9899M136.71 65.9899L119.66 17.1599L102.6 65.9899M136.71 65.9899H119.655H102.6" stroke="#3B4F58" stroke-miterlimit="10" stroke-linejoin="round"/>
<path d="M120.7 104.31L136.71 65.99L162.39 55.36L188.06 65.99L198.7 91.67L188.06 117.35L152 132" fill="#8BC0DF"/>
<path d="M120.7 104.31L136.71 65.99L162.39 55.36L188.06 65.99L198.7 91.67L188.06 117.35L152 132" stroke="#3B4F58" stroke-miterlimit="10"/>
<path d="M118.6 104.31L102.6 65.99L76.9201 55.36L51.2401 65.99L40.6101 91.67L51.2401 117.35L89.0001 133" fill="#8BC0DF"/>
<path d="M118.6 104.31L102.6 65.99L76.9201 55.36L51.2401 65.99L40.6101 91.67L51.2401 117.35L89.0001 133" stroke="#3B4F58" stroke-miterlimit="10"/>
<path d="M147.55 93.26L153.47 86.02L160.88 83.55L170.76 86.02V89.73L167.06 97.14L157.17 98.38L147.55 93.26Z" fill="#247EAB"/>
<path d="M91.7603 93.26L85.8503 86.02L78.4403 83.55L68.5503 86.02V89.73L72.2603 97.14L82.1403 98.38L91.7603 93.26Z" fill="#247EAB"/>
<path d="M153.09 152.23L143.3 175.87L119.66 185.66L96.02 175.87L86.23 152.23V136.23L96.02 112.59L119.66 102.8L143.3 112.59L153.09 136.23V152.23Z" fill="#AED3E5" stroke="#3B4F58" stroke-miterlimit="10"/>
<path d="M133.51 149.25L129.45 159.05L119.66 163.11L109.86 159.05L105.8 149.25L119.66 143.71L133.51 149.25Z" fill="#217CA3"/>
<path d="M43.0011 14.1581L36.1871 37.976L21.9973 14.1597" fill="#247EAB"/>
<path d="M43.0011 14.1581L36.1871 37.976L21.9973 14.1597" stroke="#3B4F58" stroke-miterlimit="10"/>
<path d="M8 47L36 38.2L8 29" fill="#CEDAE6"/>
<path d="M8 47L36 38.2L8 29" stroke="#3B4F58" stroke-miterlimit="10"/>
<path d="M217 14.5L203.269 38L196.5 14.5" fill="#247EAB"/>
<path d="M217 14.5L203.269 38L196.5 14.5" stroke="#3B4F58" stroke-miterlimit="10"/>
<path d="M231.5 47L204 38.2L231.5 29" fill="#CEDAE6"/>
<path d="M231.5 47L204 38.2L231.5 29" stroke="#3B4F58" stroke-miterlimit="10"/>
</svg>
