<svg width="86" height="27" viewBox="0 0 86 27" fill="none" xmlns="http://www.w3.org/2000/svg">
<path d="M6.8 15.7C6.8 16.0533 6.85333 16.39 6.96 16.71C7.06667 17.0233 7.22333 17.3 7.43 17.54C7.63667 17.7733 7.88667 17.96 8.18 18.1C8.48 18.2333 8.82 18.3 9.2 18.3C9.58 18.3 9.91667 18.23 10.21 18.09C10.51 17.9433 10.7633 17.76 10.97 17.54C11.1767 17.3133 11.3333 17.0633 11.44 16.79C11.5467 16.5167 11.6 16.2533 11.6 16C11.6 15.8867 11.6367 15.7933 11.71 15.72C11.79 15.64 11.8867 15.6 12 15.6H13.6C13.7133 15.6 13.8067 15.64 13.88 15.72C13.96 15.7933 14 15.8867 14 16C14 16.56 13.8833 17.1067 13.65 17.64C13.4167 18.1667 13.09 18.6367 12.67 19.05C12.25 19.4567 11.7433 19.7833 11.15 20.03C10.5633 20.2767 9.91333 20.4 9.2 20.4C8.38667 20.4 7.68 20.2733 7.08 20.02C6.48 19.7667 5.98 19.4167 5.58 18.97C5.18667 18.5233 4.89 17.9967 4.69 17.39C4.49667 16.7767 4.4 16.1133 4.4 15.4V8.4C4.4 8.28667 4.36 8.19333 4.28 8.12C4.20667 8.04 4.11333 8 4 8H0.8C0.686667 8 0.59 7.96333 0.51 7.89C0.436667 7.81 0.4 7.71333 0.4 7.6V6.4C0.4 6.28667 0.436667 6.19333 0.51 6.12C0.59 6.04 0.686667 6 0.8 6H3.2C3.36667 6 3.52 5.97 3.66 5.91C3.80667 5.84333 3.93333 5.75667 4.04 5.65C4.15333 5.53667 4.24 5.41 4.3 5.27C4.36667 5.12333 4.4 4.96667 4.4 4.8V1.2C4.4 1.08667 4.43667 0.993333 4.51 0.920001C4.59 0.840001 4.68667 0.8 4.8 0.8H6.4C6.51333 0.8 6.60667 0.840001 6.68 0.920001C6.76 0.993333 6.8 1.08667 6.8 1.2V5.6C6.8 5.71333 6.83667 5.81 6.91 5.89C6.99 5.96333 7.08667 6 7.2 6H12C12.1133 6 12.2067 6.04 12.28 6.12C12.36 6.19333 12.4 6.28667 12.4 6.4V7.6C12.4 7.71333 12.36 7.81 12.28 7.89C12.2067 7.96333 12.1133 8 12 8H7.2C7.08667 8 6.99 8.04 6.91 8.12C6.83667 8.19333 6.8 8.28667 6.8 8.4V15.7ZM22.379 13.2C21.639 13.2 20.9823 13.2767 20.409 13.43C19.8423 13.5767 19.3657 13.7767 18.979 14.03C18.5923 14.2833 18.299 14.58 18.099 14.92C17.9057 15.26 17.809 15.62 17.809 16C17.809 16.36 17.879 16.6867 18.019 16.98C18.1657 17.2733 18.369 17.5267 18.629 17.74C18.889 17.9467 19.2023 18.11 19.569 18.23C19.9357 18.3433 20.339 18.4 20.779 18.4C21.5523 18.4 22.249 18.2767 22.869 18.03C23.489 17.7833 24.0157 17.4467 24.449 17.02C24.889 16.5867 25.2257 16.0767 25.459 15.49C25.6923 14.9033 25.809 14.2733 25.809 13.6C25.809 13.4867 25.769 13.3933 25.689 13.32C25.6157 13.24 25.5223 13.2 25.409 13.2H22.379ZM28.209 16.57C28.209 17.1567 28.3423 17.5933 28.609 17.88C28.8823 18.16 29.219 18.3 29.619 18.3C30.019 18.3 30.349 18.17 30.609 17.91C30.8757 17.65 31.009 17.28 31.009 16.8C31.009 16.6867 31.0457 16.5933 31.119 16.52C31.199 16.44 31.2957 16.4 31.409 16.4H33.009C33.1223 16.4 33.2157 16.44 33.289 16.52C33.369 16.5933 33.409 16.6867 33.409 16.8C33.409 17.4 33.3057 17.9267 33.099 18.38C32.8923 18.8267 32.6157 19.2 32.269 19.5C31.929 19.8 31.539 20.0233 31.099 20.17C30.659 20.3233 30.209 20.4 29.749 20.4C29.4157 20.4 29.0857 20.3633 28.759 20.29C28.439 20.2233 28.1323 20.1133 27.839 19.96C27.5457 19.8067 27.2723 19.6133 27.019 19.38C26.7657 19.1467 26.549 18.8633 26.369 18.53C26.289 18.4033 26.1957 18.34 26.089 18.34C26.0157 18.34 25.9423 18.3633 25.869 18.41C25.7957 18.4567 25.7223 18.5167 25.649 18.59C25.349 18.89 25.009 19.1533 24.629 19.38C24.2557 19.6067 23.8557 19.7967 23.429 19.95C23.009 20.0967 22.569 20.2067 22.109 20.28C21.649 20.36 21.1857 20.4 20.719 20.4C19.9323 20.4 19.2123 20.29 18.559 20.07C17.9057 19.85 17.3457 19.5467 16.879 19.16C16.4123 18.7667 16.049 18.3 15.789 17.76C15.5357 17.22 15.409 16.6333 15.409 16C15.409 15.3067 15.5457 14.6667 15.819 14.08C16.0923 13.4933 16.5123 12.9867 17.079 12.56C17.6523 12.1333 18.379 11.8 19.259 11.56C20.139 11.32 21.1857 11.2 22.399 11.2H25.409C25.5223 11.2 25.6157 11.1633 25.689 11.09C25.769 11.01 25.809 10.9133 25.809 10.8C25.809 10.24 25.6957 9.76333 25.469 9.37C25.2423 8.97667 24.939 8.65667 24.559 8.41C24.1857 8.16333 23.7523 7.98333 23.259 7.87C22.7657 7.75667 22.249 7.7 21.709 7.7C21.0023 7.7 20.2723 7.82333 19.519 8.07C18.7723 8.31667 18.0757 8.65667 17.429 9.09C17.3957 9.11 17.3557 9.13 17.309 9.15C17.269 9.16333 17.2223 9.17 17.169 9.17C17.1157 9.17 17.0623 9.16 17.009 9.14C16.9623 9.11333 16.9157 9.07333 16.869 9.02L16.059 7.97C16.0057 7.89667 15.979 7.81667 15.979 7.73C15.979 7.65667 15.9957 7.59 16.029 7.53C16.069 7.46333 16.1057 7.41667 16.139 7.39C16.5523 7.09 16.9857 6.83 17.439 6.61C17.899 6.38333 18.3657 6.19667 18.839 6.05C19.319 5.89667 19.799 5.78333 20.279 5.71C20.7657 5.63667 21.2423 5.6 21.709 5.6C22.5757 5.6 23.399 5.72 24.179 5.96C24.9657 6.2 25.6557 6.57 26.249 7.07C26.849 7.56333 27.3257 8.18667 27.679 8.94C28.0323 9.69333 28.209 10.58 28.209 11.6V16.57ZM44.7145 13C44.7145 12.26 44.6211 11.5667 44.4345 10.92C44.2478 10.2733 43.9711 9.71333 43.6045 9.24C43.2445 8.76 42.7911 8.38333 42.2445 8.11C41.7045 7.83667 41.0778 7.7 40.3645 7.7C39.6445 7.7 39.0078 7.83667 38.4545 8.11C37.9011 8.38333 37.4345 8.76 37.0545 9.24C36.6811 9.71333 36.3978 10.2733 36.2045 10.92C36.0111 11.5667 35.9145 12.26 35.9145 13C35.9145 13.74 36.0111 14.4333 36.2045 15.08C36.3978 15.7267 36.6811 16.29 37.0545 16.77C37.4345 17.2433 37.9011 17.6167 38.4545 17.89C39.0078 18.1633 39.6445 18.3 40.3645 18.3C41.0778 18.3 41.7045 18.1633 42.2445 17.89C42.7911 17.6167 43.2445 17.2433 43.6045 16.77C43.9711 16.29 44.2478 15.7267 44.4345 15.08C44.6211 14.4333 44.7145 13.74 44.7145 13ZM44.7145 2.4C44.7145 2.3 44.6778 2.21 44.6045 2.13C44.5378 2.04333 44.4411 2 44.3145 2H41.1145C41.0011 2 40.9045 1.96333 40.8245 1.89C40.7511 1.81 40.7145 1.71333 40.7145 1.6V0.400001C40.7145 0.286667 40.7511 0.193334 40.8245 0.12C40.9045 0.0399995 41.0011 -5.96046e-07 41.1145 -5.96046e-07H46.7145C46.8278 -5.96046e-07 46.9211 0.0399995 46.9945 0.12C47.0745 0.193334 47.1145 0.286667 47.1145 0.400001V17.6C47.1145 17.7133 47.1511 17.81 47.2245 17.89C47.3045 17.9633 47.4011 18 47.5145 18H49.5145C49.6278 18 49.7211 18.04 49.7945 18.12C49.8745 18.1933 49.9145 18.2867 49.9145 18.4V19.6C49.9145 19.7133 49.8745 19.81 49.7945 19.89C49.7211 19.9633 49.6278 20 49.5145 20H45.1145C45.0011 20 44.9045 19.9633 44.8245 19.89C44.7511 19.81 44.7145 19.7133 44.7145 19.6V18.82C44.7145 18.7 44.6911 18.62 44.6445 18.58C44.5978 18.5333 44.5478 18.51 44.4945 18.51C44.4078 18.51 44.3245 18.5567 44.2445 18.65C43.7178 19.1833 43.1011 19.61 42.3945 19.93C41.6878 20.2433 40.8611 20.4 39.9145 20.4C38.9145 20.4 38.0178 20.2067 37.2245 19.82C36.4311 19.4267 35.7578 18.8967 35.2045 18.23C34.6578 17.5567 34.2378 16.77 33.9445 15.87C33.6578 14.97 33.5145 14.01 33.5145 12.99C33.5145 11.97 33.6578 11.0133 33.9445 10.12C34.2311 9.22 34.6478 8.43667 35.1945 7.77C35.7478 7.09667 36.4178 6.56667 37.2045 6.18C37.9978 5.79333 38.9011 5.6 39.9145 5.6C40.3878 5.6 40.8245 5.64 41.2245 5.72C41.6311 5.79333 42.0111 5.90667 42.3645 6.06C42.7178 6.20667 43.0478 6.39 43.3545 6.61C43.6678 6.82333 43.9645 7.07 44.2445 7.35C44.2911 7.39 44.3311 7.42333 44.3645 7.45C44.4045 7.47667 44.4478 7.49 44.4945 7.49C44.5478 7.49 44.5978 7.47 44.6445 7.43C44.6911 7.38333 44.7145 7.3 44.7145 7.18V2.4ZM62.7027 13C62.7027 12.26 62.6094 11.5667 62.4227 10.92C62.2361 10.2733 61.9594 9.71333 61.5927 9.24C61.2327 8.76 60.7794 8.38333 60.2327 8.11C59.6927 7.83667 59.0661 7.7 58.3527 7.7C57.6327 7.7 56.9961 7.83667 56.4427 8.11C55.8894 8.38333 55.4227 8.76 55.0427 9.24C54.6694 9.71333 54.3861 10.2733 54.1927 10.92C53.9994 11.5667 53.9027 12.26 53.9027 13C53.9027 13.74 53.9994 14.4333 54.1927 15.08C54.3861 15.7267 54.6694 16.29 55.0427 16.77C55.4227 17.2433 55.8894 17.6167 56.4427 17.89C56.9961 18.1633 57.6327 18.3 58.3527 18.3C59.0661 18.3 59.6927 18.1633 60.2327 17.89C60.7794 17.6167 61.2327 17.2433 61.5927 16.77C61.9594 16.29 62.2361 15.7267 62.4227 15.08C62.6094 14.4333 62.7027 13.74 62.7027 13ZM62.7027 2.4C62.7027 2.3 62.6661 2.21 62.5927 2.13C62.5261 2.04333 62.4294 2 62.3027 2H59.1027C58.9894 2 58.8927 1.96333 58.8127 1.89C58.7394 1.81 58.7027 1.71333 58.7027 1.6V0.400001C58.7027 0.286667 58.7394 0.193334 58.8127 0.12C58.8927 0.0399995 58.9894 -5.96046e-07 59.1027 -5.96046e-07H64.7027C64.8161 -5.96046e-07 64.9094 0.0399995 64.9827 0.12C65.0627 0.193334 65.1027 0.286667 65.1027 0.400001V17.6C65.1027 17.7133 65.1394 17.81 65.2127 17.89C65.2927 17.9633 65.3894 18 65.5027 18H67.5027C67.6161 18 67.7094 18.04 67.7827 18.12C67.8627 18.1933 67.9027 18.2867 67.9027 18.4V19.6C67.9027 19.7133 67.8627 19.81 67.7827 19.89C67.7094 19.9633 67.6161 20 67.5027 20H63.1027C62.9894 20 62.8927 19.9633 62.8127 19.89C62.7394 19.81 62.7027 19.7133 62.7027 19.6V18.82C62.7027 18.7 62.6794 18.62 62.6327 18.58C62.5861 18.5333 62.5361 18.51 62.4827 18.51C62.3961 18.51 62.3127 18.5567 62.2327 18.65C61.7061 19.1833 61.0894 19.61 60.3827 19.93C59.6761 20.2433 58.8494 20.4 57.9027 20.4C56.9027 20.4 56.0061 20.2067 55.2127 19.82C54.4194 19.4267 53.7461 18.8967 53.1927 18.23C52.6461 17.5567 52.2261 16.77 51.9327 15.87C51.6461 14.97 51.5027 14.01 51.5027 12.99C51.5027 11.97 51.6461 11.0133 51.9327 10.12C52.2194 9.22 52.6361 8.43667 53.1827 7.77C53.7361 7.09667 54.4061 6.56667 55.1927 6.18C55.9861 5.79333 56.8894 5.6 57.9027 5.6C58.3761 5.6 58.8127 5.64 59.2127 5.72C59.6194 5.79333 59.9994 5.90667 60.3527 6.06C60.7061 6.20667 61.0361 6.39 61.3427 6.61C61.6561 6.82333 61.9527 7.07 62.2327 7.35C62.2794 7.39 62.3194 7.42333 62.3527 7.45C62.3927 7.47667 62.4361 7.49 62.4827 7.49C62.5361 7.49 62.5861 7.47 62.6327 7.43C62.6794 7.38333 62.7027 7.3 62.7027 7.18V2.4ZM74.6169 20.97C74.6502 20.89 74.6869 20.78 74.7269 20.64C74.7735 20.5 74.7969 20.3367 74.7969 20.15C74.7969 20.0367 74.7835 19.9133 74.7569 19.78C74.7302 19.6467 74.6869 19.5067 74.6269 19.36L69.8969 8.4C69.8569 8.3 69.7635 8.21 69.6169 8.13C69.4769 8.04333 69.3335 8 69.1869 8H67.5969C67.4835 8 67.3869 7.96333 67.3069 7.89C67.2335 7.81 67.1969 7.71333 67.1969 7.6V6.4C67.1969 6.28667 67.2335 6.19333 67.3069 6.12C67.3869 6.04 67.4835 6 67.5969 6H74.7969C74.9102 6 75.0035 6.04 75.0769 6.12C75.1569 6.19333 75.1969 6.28667 75.1969 6.4V7.6C75.1969 7.71333 75.1569 7.81 75.0769 7.89C75.0035 7.96333 74.9102 8 74.7969 8H72.8369C72.7235 8 72.6269 8.03333 72.5469 8.1C72.4735 8.16667 72.4369 8.26667 72.4369 8.4C72.4369 8.51333 72.4635 8.63333 72.5169 8.76L75.9769 17C76.0235 17.12 76.1035 17.18 76.2169 17.18C76.3235 17.18 76.4035 17.12 76.4569 17L79.7969 8.76C79.8502 8.63333 79.8769 8.51333 79.8769 8.4C79.8769 8.26667 79.8369 8.16667 79.7569 8.1C79.6835 8.03333 79.5902 8 79.4769 8H77.5969C77.4835 8 77.3869 7.96333 77.3069 7.89C77.2335 7.81 77.1969 7.71333 77.1969 7.6V6.4C77.1969 6.28667 77.2335 6.19333 77.3069 6.12C77.3869 6.04 77.4835 6 77.5969 6H84.8169C84.9302 6 85.0235 6.04 85.0969 6.12C85.1769 6.19333 85.2169 6.28667 85.2169 6.4V7.6C85.2169 7.71333 85.1769 7.81 85.0969 7.89C85.0235 7.96333 84.9302 8 84.8169 8H83.1269C82.9802 8 82.8369 8.04333 82.6969 8.13C82.5569 8.21 82.4635 8.3 82.4169 8.4L76.0569 23.41C75.6169 24.4567 75.0135 25.2167 74.2469 25.69C73.4802 26.1633 72.5835 26.4 71.5569 26.4C70.8435 26.4 70.1935 26.2767 69.6069 26.03C69.0269 25.7833 68.5269 25.4533 68.1069 25.04C67.6935 24.6333 67.3702 24.1633 67.1369 23.63C66.9102 23.1033 66.7969 22.56 66.7969 22C66.7969 21.8867 66.8335 21.79 66.9069 21.71C66.9869 21.6367 67.0835 21.6 67.1969 21.6H68.7969C68.9102 21.6 69.0035 21.6367 69.0769 21.71C69.1569 21.79 69.1969 21.8867 69.1969 22C69.1969 22.2533 69.2469 22.5167 69.3469 22.79C69.4535 23.0633 69.6069 23.31 69.8069 23.53C70.0069 23.7567 70.2535 23.94 70.5469 24.08C70.8402 24.2267 71.1769 24.3 71.5569 24.3C72.0969 24.3 72.5769 24.1567 72.9969 23.87C73.4169 23.59 73.7502 23.1433 73.9969 22.53L74.6169 20.97Z" fill="#103C4E"/>
</svg>
