<?xml version="1.0" encoding="utf-8"?>
<!-- Generator: Adobe Illustrator 24.2.1, SVG Export Plug-In . SVG Version: 6.00 Build 0)  -->
<svg version="1.1" id="Layer_1" xmlns="http://www.w3.org/2000/svg" xmlns:xlink="http://www.w3.org/1999/xlink" x="0px" y="0px"
	 viewBox="0 0 240 240" style="enable-background:new 0 0 240 240;" xml:space="preserve">
<style type="text/css">
	.st0{display:none;}
	.st1{display:inline;fill:url(#SVGID_1_);stroke:#FFFFFF;stroke-width:4;stroke-miterlimit:10;}
	.st2{display:inline;fill:url(#SVGID_2_);stroke:#FFFFFF;stroke-width:4;stroke-miterlimit:10;}
	.st3{display:inline;}
	.st4{fill:url(#SVGID_3_);stroke:#FFFFFF;stroke-width:4;stroke-miterlimit:10;}
	.st5{fill:url(#SVGID_4_);stroke:#FFFFFF;stroke-width:4;stroke-miterlimit:10;}
	.st6{fill:url(#SVGID_5_);stroke:#FFFFFF;stroke-width:4;stroke-miterlimit:10;}
	.st7{fill:none;stroke:#FFFFFF;stroke-width:4;stroke-linecap:round;stroke-linejoin:round;stroke-miterlimit:10;}
	.st8{fill:#FFFFFF;}
	.st9{display:inline;fill:url(#SVGID_6_);stroke:#FFFFFF;stroke-width:4;stroke-miterlimit:10;}
	.st10{display:inline;fill:#FFFFFF;}
	.st11{display:inline;fill:none;stroke:#FFFFFF;stroke-width:4;stroke-miterlimit:10;}
	.st12{fill:none;stroke:#FFFFFF;stroke-width:4;stroke-linejoin:round;stroke-miterlimit:10;}
	.st13{fill:none;stroke:#FFFFFF;stroke-width:4;stroke-miterlimit:10;}
	.st14{display:inline;fill:none;stroke:#FFFFFF;stroke-width:4;stroke-linejoin:round;stroke-miterlimit:10;}
	.st15{fill:none;stroke:url(#SVGID_7_);stroke-width:4;stroke-linejoin:round;stroke-miterlimit:10;}
	.st16{fill:none;stroke:url(#SVGID_8_);stroke-width:4;stroke-linejoin:round;stroke-miterlimit:10;}
	.st17{fill:none;stroke:url(#SVGID_9_);stroke-width:4;stroke-miterlimit:10;}
	.st18{fill:none;stroke:url(#SVGID_10_);stroke-width:4;stroke-miterlimit:10;}
	.st19{fill:url(#SVGID_11_);}
	.st20{fill:url(#SVGID_12_);}
	.st21{fill:none;stroke:url(#SVGID_13_);stroke-width:4;stroke-miterlimit:10;}
	.st22{fill:none;stroke:url(#SVGID_14_);stroke-width:4;stroke-miterlimit:10;}
	.st23{fill:none;stroke:url(#SVGID_15_);stroke-width:4;stroke-miterlimit:10;}
	.st24{fill:url(#SVGID_16_);}
	.st25{fill:none;stroke:url(#SVGID_17_);stroke-width:4;stroke-miterlimit:10;}
	.st26{fill:none;stroke:url(#SVGID_18_);stroke-width:4;stroke-miterlimit:10;}
	.st27{fill:none;stroke:url(#SVGID_19_);stroke-width:4;stroke-miterlimit:10;}
	.st28{fill:none;stroke:url(#SVGID_20_);stroke-width:4;stroke-miterlimit:10;}
</style>
<g class="st0">
	<linearGradient id="SVGID_1_" gradientUnits="userSpaceOnUse" x1="178.0851" y1="44.3218" x2="232.6924" y2="44.3218">
		<stop  offset="0" style="stop-color:#77BEDF"/>
		<stop  offset="1" style="stop-color:#90E4EF"/>
	</linearGradient>
	<polyline class="st1" points="215.45,72.27 232.69,49.18 232.69,31.18 217.89,16.38 197.09,16.38 178.09,30.78 	"/>
	<linearGradient id="SVGID_2_" gradientUnits="userSpaceOnUse" x1="7.8929" y1="44.323" x2="62.5029" y2="44.323">
		<stop  offset="0" style="stop-color:#020F92"/>
		<stop  offset="1" style="stop-color:#2848AB"/>
	</linearGradient>
	<polyline class="st2" points="25.13,72.27 7.89,49.18 7.89,31.18 22.69,16.38 43.49,16.38 62.5,30.78 	"/>
	<g class="st3">
		<linearGradient id="SVGID_3_" gradientUnits="userSpaceOnUse" x1="13.8929" y1="120.4794" x2="226.6929" y2="120.4794">
			<stop  offset="0" style="stop-color:#020F92"/>
			<stop  offset="1" style="stop-color:#99F1F5"/>
		</linearGradient>
		<polygon class="st4" points="226.69,104.38 223.49,156.56 197.09,184.58 135.29,221.38 104.29,221.38 43.49,184.58 17.09,156.56 
			13.89,104.38 25.13,72.27 36.29,40.38 62.5,30.78 93.09,19.58 147.49,19.58 178.08,30.78 204.29,40.38 215.45,72.27 		"/>
		<linearGradient id="SVGID_4_" gradientUnits="userSpaceOnUse" x1="120.2874" y1="96.5094" x2="199.3374" y2="96.5094">
			<stop  offset="0" style="stop-color:#385FB5"/>
			<stop  offset="1" style="stop-color:#99F1F5"/>
		</linearGradient>
		<polyline class="st5" points="120.29,109.24 121.34,106.73 137.35,68.41 163.03,57.78 188.7,68.41 199.34,94.09 188.7,119.77 
			151.4,135.24 146.31,123.48 		"/>
		<linearGradient id="SVGID_5_" gradientUnits="userSpaceOnUse" x1="41.2474" y1="96.5094" x2="120.2874" y2="96.5094">
			<stop  offset="0" style="stop-color:#020F92"/>
			<stop  offset="1" style="stop-color:#3D67B8"/>
		</linearGradient>
		<polyline class="st6" points="120.29,109.24 119.24,106.73 103.24,68.41 77.56,57.78 51.88,68.41 41.25,94.09 51.88,119.77 
			89.4,135.24 94.27,123.49 		"/>
		<polyline class="st7" points="137.35,68.41 103.24,68.41 93.09,19.58 77.56,57.78 36.29,40.38 51.88,68.41 25.13,72.27 
			41.25,94.09 13.89,104.38 51.88,119.77 17.09,156.55 89.4,135.24 43.49,184.58 96.65,178.28 104.29,221.38 120.29,188.07 
			135.29,221.38 143.93,178.28 197.09,184.58 151.4,135.24 223.49,156.55 188.7,119.77 226.69,104.38 199.34,94.09 215.45,72.27 
			188.7,68.41 204.29,40.38 163.03,57.78 147.49,19.58 137.35,68.41 120.29,19.58 103.24,68.41 		"/>
		<polygon class="st8" points="148.18,95.68 154.1,88.43 161.51,85.96 171.4,88.43 171.4,92.14 167.69,99.55 157.81,100.79 		"/>
		<polygon class="st8" points="92.4,95.68 86.48,88.43 79.07,85.96 69.18,88.43 69.18,92.14 72.89,99.55 82.78,100.79 		"/>
	</g>
	<linearGradient id="SVGID_6_" gradientUnits="userSpaceOnUse" x1="86.8602" y1="146.6424" x2="153.7247" y2="146.6424">
		<stop  offset="0" style="stop-color:#2A4AAB"/>
		<stop  offset="0.5" style="stop-color:#3D67B9"/>
		<stop  offset="1" style="stop-color:#5B93CC"/>
	</linearGradient>
	<polygon class="st9" points="153.72,154.64 143.93,178.28 120.29,188.07 96.65,178.28 86.86,154.64 86.86,138.64 96.65,115 
		120.29,105.21 143.93,115 153.72,138.64 	"/>
	<polygon class="st10" points="134.15,151.67 130.09,161.46 120.29,165.52 110.5,161.46 106.44,151.67 120.29,146.12 	"/>
	<polyline class="st11" points="43.49,16.38 36.29,40.38 22.69,16.38 	"/>
	<polyline class="st11" points="7.89,49.18 36.29,40.38 7.89,31.18 	"/>
	<polyline class="st11" points="217.89,16.38 204.29,40.38 197.09,16.38 	"/>
	<polyline class="st11" points="232.69,49.18 204.29,40.38 232.69,31.18 	"/>
</g>
<g class="st0">
	<g class="st3">
		<polygon class="st12" points="225.92,101.85 222.72,154.03 196.32,182.05 134.52,218.85 103.52,218.85 42.72,182.05 16.32,154.03 
			13.12,101.85 24.36,69.74 35.52,37.85 61.73,28.25 92.32,17.05 146.72,17.05 177.31,28.25 203.52,37.85 214.68,69.74 		"/>
		<polyline class="st12" points="136.58,65.88 102.47,65.88 92.32,17.05 76.79,55.25 35.52,37.85 51.11,65.88 24.36,69.74 
			40.48,91.56 13.12,101.85 51.11,117.24 16.32,154.03 88.63,132.71 42.72,182.05 95.88,175.76 103.52,218.85 119.52,185.55 
			134.52,218.85 143.16,175.76 196.32,182.05 150.63,132.71 222.72,154.03 187.93,117.24 225.92,101.85 198.57,91.56 214.69,69.74 
			187.93,65.88 203.52,37.85 162.26,55.25 146.72,17.05 136.58,65.88 119.52,17.05 102.47,65.88 		"/>
		<polyline class="st12" points="214.69,69.74 231.92,46.65 231.92,28.65 217.12,13.85 196.32,13.85 177.32,28.26 		"/>
		<polyline class="st12" points="24.36,69.74 7.12,46.65 7.12,28.65 21.92,13.85 42.72,13.85 61.73,28.25 		"/>
	</g>
	<g class="st3">
		<polygon class="st8" points="147.42,93.15 153.33,85.91 160.74,83.44 170.63,85.91 170.63,89.62 166.92,97.03 157.04,98.27 		"/>
		<polygon class="st8" points="91.63,93.15 85.71,85.91 78.3,83.44 68.42,85.91 68.42,89.62 72.12,97.03 82.01,98.27 		"/>
		<polyline class="st13" points="119.52,106.71 120.57,104.2 136.58,65.88 162.26,55.25 187.93,65.88 198.57,91.56 187.93,117.24 
			150.63,132.71 145.54,120.95 		"/>
		<polyline class="st13" points="119.52,106.71 118.47,104.2 102.47,65.88 76.79,55.25 51.11,65.88 40.48,91.56 51.11,117.24 
			88.63,132.71 93.5,120.96 		"/>
	</g>
	<polygon class="st11" points="152.96,152.12 143.16,175.76 119.52,185.55 95.88,175.76 86.09,152.12 86.09,136.12 95.88,112.48 
		119.52,102.69 143.16,112.48 152.96,136.12 	"/>
	<polygon class="st10" points="133.38,149.14 129.32,158.94 119.52,163 109.73,158.94 105.67,149.14 119.52,143.6 	"/>
	<polyline class="st14" points="42.72,13.85 35.52,37.85 21.92,13.85 	"/>
	<polyline class="st14" points="7.12,46.65 35.52,37.85 7.12,28.65 	"/>
	<polyline class="st14" points="217.12,13.85 203.52,37.85 196.32,13.85 	"/>
	<polyline class="st14" points="231.92,46.65 203.52,37.85 231.92,28.65 	"/>
</g>
<g>
	<g>
		<linearGradient id="SVGID_7_" gradientUnits="userSpaceOnUse" x1="11.2588" y1="118.0647" x2="228.0587" y2="118.0647">
			<stop  offset="0" style="stop-color:#020F92"/>
			<stop  offset="1" style="stop-color:#99F1F5"/>
		</linearGradient>
		<polygon class="st15" points="226.06,101.96 222.86,154.14 196.46,182.16 134.66,218.96 103.66,218.96 42.86,182.16 16.46,154.14 
			13.26,101.96 24.5,69.85 35.66,37.96 61.87,28.36 92.46,17.16 146.86,17.16 177.45,28.36 203.66,37.96 214.82,69.85 		"/>
		<linearGradient id="SVGID_8_" gradientUnits="userSpaceOnUse" x1="11.2583" y1="118.0621" x2="228.0583" y2="118.0621">
			<stop  offset="0" style="stop-color:#020F92"/>
			<stop  offset="1" style="stop-color:#99F1F5"/>
		</linearGradient>
		<polyline class="st16" points="136.71,65.99 102.6,65.99 92.46,17.16 76.92,55.36 35.66,37.96 51.24,65.99 24.5,69.85 
			40.61,91.67 13.26,101.96 51.24,117.35 16.46,154.14 87,134 42.86,182.16 96.02,175.87 103.66,218.96 119.66,185.66 
			134.66,218.96 143.3,175.87 196.46,182.16 153,134 222.86,154.14 188.06,117.35 226.06,101.96 198.7,91.67 214.82,69.85 
			188.06,65.99 203.66,37.96 162.39,55.36 146.86,17.16 136.71,65.99 119.66,17.16 102.6,65.99 		"/>
		<linearGradient id="SVGID_9_" gradientUnits="userSpaceOnUse" x1="176.243" y1="41.5055" x2="234.0583" y2="41.5055">
			<stop  offset="0" style="stop-color:#77BEDF"/>
			<stop  offset="1" style="stop-color:#90E4EF"/>
		</linearGradient>
		<polyline class="st17" points="214.82,69.85 232.06,46.76 232.06,28.76 217.26,13.96 196.46,13.96 177.45,28.37 		"/>
		<linearGradient id="SVGID_10_" gradientUnits="userSpaceOnUse" x1="5.2588" y1="41.508" x2="63.0764" y2="41.508">
			<stop  offset="0" style="stop-color:#020F92"/>
			<stop  offset="1" style="stop-color:#2848AB"/>
		</linearGradient>
		<polyline class="st18" points="24.5,69.85 7.26,46.76 7.26,28.76 22.06,13.96 42.86,13.96 61.87,28.36 		"/>
	</g>
	<g>
		<linearGradient id="SVGID_11_" gradientUnits="userSpaceOnUse" x1="147.5507" y1="90.9621" x2="170.7633" y2="90.9621">
			<stop  offset="0" style="stop-color:#5D96CD"/>
			<stop  offset="1" style="stop-color:#79C1E0"/>
		</linearGradient>
		<polygon class="st19" points="147.55,93.26 153.47,86.02 160.88,83.55 170.76,86.02 170.76,89.73 167.06,97.14 157.17,98.38 		"/>
		<linearGradient id="SVGID_12_" gradientUnits="userSpaceOnUse" x1="68.5507" y1="90.9621" x2="91.7633" y2="90.9621">
			<stop  offset="0" style="stop-color:#152C9F"/>
			<stop  offset="1" style="stop-color:#223FA7"/>
		</linearGradient>
		<polygon class="st20" points="91.76,93.26 85.85,86.02 78.44,83.55 68.55,86.02 68.55,89.73 72.26,97.14 82.14,98.38 		"/>
		<linearGradient id="SVGID_13_" gradientUnits="userSpaceOnUse" x1="118.8579" y1="93.5266" x2="200.8682" y2="93.5266">
			<stop  offset="0" style="stop-color:#385FB5"/>
			<stop  offset="1" style="stop-color:#99F1F5"/>
		</linearGradient>
		<polyline class="st21" points="120.7,104.31 136.71,65.99 162.39,55.36 188.06,65.99 198.7,91.67 188.06,117.35 152,132 		"/>
		<linearGradient id="SVGID_14_" gradientUnits="userSpaceOnUse" x1="38.4487" y1="94.0239" x2="120.4489" y2="94.0239">
			<stop  offset="0" style="stop-color:#020F92"/>
			<stop  offset="1" style="stop-color:#3D67B8"/>
		</linearGradient>
		<polyline class="st22" points="118.6,104.31 102.6,65.99 76.92,55.36 51.24,65.99 40.61,91.67 51.24,117.35 89,133 		"/>
	</g>
	<linearGradient id="SVGID_15_" gradientUnits="userSpaceOnUse" x1="84.2261" y1="144.2278" x2="155.0905" y2="144.2278">
		<stop  offset="0" style="stop-color:#2A4AAB"/>
		<stop  offset="0.5" style="stop-color:#3D67B9"/>
		<stop  offset="1" style="stop-color:#5B93CC"/>
	</linearGradient>
	<polygon class="st23" points="153.09,152.23 143.3,175.87 119.66,185.66 96.02,175.87 86.23,152.23 86.23,136.23 96.02,112.59 
		119.66,102.8 143.3,112.59 153.09,136.23 	"/>
	<linearGradient id="SVGID_16_" gradientUnits="userSpaceOnUse" x1="105.8047" y1="153.4056" x2="133.5119" y2="153.4056">
		<stop  offset="0" style="stop-color:#3155B0"/>
		<stop  offset="0.5" style="stop-color:#3D66B9"/>
		<stop  offset="1" style="stop-color:#4E80C4"/>
	</linearGradient>
	<polygon class="st24" points="133.51,149.25 129.45,159.05 119.66,163.11 109.86,159.05 105.8,149.25 119.66,143.71 	"/>
	<linearGradient id="SVGID_17_" gradientUnits="userSpaceOnUse" x1="20.3188" y1="28.001" x2="44.7744" y2="28.001">
		<stop  offset="0" style="stop-color:#020F92"/>
		<stop  offset="1" style="stop-color:#2848AB"/>
	</linearGradient>
	<polyline class="st25" points="42.86,13.96 35.66,37.96 22.06,13.96 	"/>
	<linearGradient id="SVGID_18_" gradientUnits="userSpaceOnUse" x1="6.6426" y1="37.7686" x2="42.2788" y2="37.7686">
		<stop  offset="0" style="stop-color:#020F92"/>
		<stop  offset="1" style="stop-color:#2848AB"/>
	</linearGradient>
	<polyline class="st26" points="7.26,46.76 35.66,37.96 7.26,28.76 	"/>
	<linearGradient id="SVGID_19_" gradientUnits="userSpaceOnUse" x1="194.5426" y1="27.9999" x2="218.9984" y2="27.9999">
		<stop  offset="0" style="stop-color:#7FCAE4"/>
		<stop  offset="1" style="stop-color:#8ADAEB"/>
	</linearGradient>
	<polyline class="st27" points="217.26,13.96 203.66,37.96 196.46,13.96 	"/>
	<linearGradient id="SVGID_20_" gradientUnits="userSpaceOnUse" x1="197.0377" y1="37.7659" x2="232.6747" y2="37.7659">
		<stop  offset="0" style="stop-color:#82CFE6"/>
		<stop  offset="1" style="stop-color:#8FE3EE"/>
	</linearGradient>
	<polyline class="st28" points="232.06,46.76 203.66,37.96 232.06,28.76 	"/>
</g>
</svg>
